PathFileType	4	(X/Y/Z)	D:\TRACE\spotREDO_2-26-24\spot_justBody_Motion_2_7-v60.trc
DataRate	CameraRate	NumFrames	NumMarkers	Units	OrigDataRate	OrigDataStartFrame	OrigNumFrames
100.00	100.00	      27	9	mm	100.00	5251	      7000
Frame#	Time	front left toe			Front right toe			aft left toe			aft right toe			Arm			FL body			FR body			AL Body			AR Body			
		X1	Y1	Z1	X2	Y2	Z2	X3	Y3	Z3	X4	Y4	Z4	X5	Y5	Z5	X6	Y6	Z6	X7	Y7	Z7	X8	Y8	Z8	X9	Y9	Z9	

5251	52.500	-129.45834	20.43979	-250.32819	402.30591	17.52740	-123.35275	-225.10950	31.07454	274.39923	214.27007	25.98866	229.66035	224.58574	828.55878	-299.61966	142.93852	567.61517	-308.76526	292.92426	573.82318	-265.67401	-108.09690	546.98004	538.74487	27.69145	552.69958	579.98444	
5252	52.510	-129.95003	20.08676	-250.65923	401.79324	17.08364	-123.53216	-225.90411	31.68517	274.00781	213.57260	26.11449	229.37637	224.42207	828.05792	-299.63733	142.72673	567.08527	-308.43134	293.01871	573.24731	-265.38297	-108.56529	547.41028	538.88629	26.91018	553.21368	580.09735	
5253	52.520	-130.55112	19.61425	-250.89006	401.33594	16.74307	-123.83980	-226.68352	32.11568	273.74615	212.98430	26.59899	229.30637	224.47198	827.60138	-299.58560	142.58713	566.73474	-308.30206	292.93198	572.78052	-265.09576	-109.07454	547.73779	538.91156	26.53464	553.36542	580.29785	
5254	52.530	-131.27319	19.11140	-251.06107	400.69208	16.47969	-123.93877	-227.32155	32.50901	273.64001	211.81407	26.96127	228.90735	224.57776	827.24457	-299.46054	142.58553	566.25592	-308.07941	292.79395	572.34106	-264.89844	-109.55620	548.08936	539.12964	25.83506	553.73804	580.54047	
5255	52.540	-131.97279	18.43938	-251.39886	400.05524	16.20510	-124.20288	-227.77185	32.91525	273.36493	211.33742	27.30977	228.59601	224.35738	826.80560	-299.45392	142.54187	565.85583	-307.97055	292.58109	571.90546	-264.63873	-110.06481	548.38824	539.17432	25.21423	554.26801	580.72522	
5256	52.550	-132.30635	17.89015	-251.80675	399.30405	15.87340	-124.46558	-228.49507	33.51804	272.95581	210.96069	27.32885	228.26822	224.30415	826.27142	-299.62677	142.48041	565.24658	-307.70401	292.66064	571.59454	-264.52374	-110.83592	548.86414	539.11230	24.73710	554.73218	580.67908	
5257	52.560	-132.81514	17.46589	-252.23225	398.83627	15.55707	-124.59753	-229.12703	34.08371	272.65588	210.65694	27.72825	228.07565	224.18953	825.70099	-299.82852	142.50220	564.71173	-307.55789	292.57553	571.17163	-264.30539	-111.30659	549.32538	539.14868	24.05749	555.28241	580.68164	
5258	52.570	-133.55907	17.37305	-252.58705	398.30109	15.25793	-124.73749	-229.62541	34.66035	272.21768	209.44814	28.06986	227.62311	224.12466	825.34747	-300.00381	142.43964	564.23328	-307.41049	292.55750	570.65875	-264.15076	-111.83585	549.86963	539.17120	23.69527	555.76935	580.70099	
5259	52.580	-133.82477	16.74764	-252.69653	397.37906	15.02146	-125.05149	-230.19138	35.12593	271.99426	208.77908	28.37151	227.57520	223.78159	824.88983	-300.36368	142.40218	563.84637	-307.53775	292.14185	570.05713	-263.94373	-112.46555	550.46350	539.14722	23.28870	556.48138	580.82507	
5260	52.590	-134.60474	16.21544	-252.76810	397.06866	14.76745	-125.21172	-230.56895	35.49227	271.62027	208.48293	28.58213	227.37563	223.69188	824.45526	-300.55679	142.13896	563.41644	-307.66553	291.97989	569.68762	-263.90460	-113.16702	551.16052	539.25287	22.61104	557.19855	580.81964	
5261	52.600	-133.81786	17.75202	-252.33206	396.32550	14.21129	-125.64747	-231.25430	36.01842	271.30750	208.40173	29.55128	227.08920	223.69905	823.83234	-300.72220	142.11313	562.65796	-307.40417	291.88589	569.46667	-263.83295	-113.54826	551.79010	538.83832	21.76026	557.95068	580.70300	
5262	52.610	-131.73927	26.85188	-248.92781	396.08826	13.77153	-125.61990	-231.59734	36.42341	271.03259	208.11612	29.80102	226.79094	223.33588	823.36365	-301.15094	142.32542	561.98901	-307.60809	292.15594	569.14514	-263.69598	-114.43549	552.32800	538.46436	21.11397	558.48517	580.35516	
5263	52.620	-131.74727	37.55865	-242.64252	395.90503	13.48690	-125.69519	-232.01668	36.84178	270.75946	207.61214	30.18906	226.78000	222.47620	822.67474	-302.09372	142.55826	561.19922	-307.82446	292.45096	568.59106	-263.62561	-115.64553	552.93262	537.78632	19.65297	559.51093	579.83252	
5264	52.630	-132.83478	51.55401	-238.59201	395.77417	12.87372	-125.86300	-232.60941	37.26968	270.43390	206.48766	30.68014	226.52405	222.11349	821.61377	-303.04333	142.51740	559.83826	-307.93533	292.41849	567.50226	-263.77332	-116.46378	553.61523	537.36090	18.84116	560.66754	579.59412	
5265	52.640	-134.57852	65.61962	-238.96463	395.62717	12.63629	-125.89827	-232.83861	37.78894	269.97409	206.07793	31.07657	225.97275	222.50372	820.34937	-303.77206	142.56529	558.84027	-308.03571	292.22986	566.67456	-263.74969	-117.11111	554.71161	536.98987	17.93855	561.82648	579.39777	
5266	52.650	-134.59206	78.93674	-243.63370	395.33893	12.53667	-126.03967	-232.97394	38.10001	269.79456	205.78502	31.50399	225.60980	222.76567	819.29242	-304.32843	142.21594	557.83240	-308.31171	291.65854	565.51007	-264.04834	-117.61792	555.70618	536.99255	16.86585	562.69965	579.17944	
5267	52.660	-131.65253	92.29566	-247.68687	394.91971	12.36681	-126.59561	-233.15176	38.39307	269.75644	205.58287	31.70343	225.37900	222.82854	818.55597	-304.70493	141.55592	557.52563	-308.42816	291.08917	565.03357	-264.18274	-118.07275	556.35059	536.79358	16.23034	563.40918	578.90076	
5268	52.670	-127.48359	104.53131	-249.38872	394.52890	12.29587	-126.79485	-233.55055	38.86065	269.26120	205.71326	31.94417	225.20932	222.32399	818.22052	-305.20709	141.21175	557.25256	-308.75653	290.64246	564.62213	-264.39072	-118.72795	556.82007	536.39160	15.08881	564.02496	578.62408	
5269	52.680	-124.26200	114.67672	-247.80360	394.57251	12.14059	-126.88544	-233.60889	38.97502	268.96820	205.73886	32.23128	225.07703	221.44006	818.09796	-305.63571	140.78444	556.78705	-309.02274	290.40927	564.44452	-264.50021	-119.36253	557.06403	536.03882	15.08972	564.31000	578.41174	
5270	52.690	-121.63841	125.22062	-244.23557	394.45474	11.71323	-127.16319	-233.73160	39.30652	268.61111	205.44528	32.71077	224.68262	220.68486	817.90253	-306.15686	140.58701	556.35461	-309.08517	290.30249	564.22803	-264.56244	-120.17516	557.39069	535.61591	14.60627	564.61932	578.11566	
5271	52.700	-120.77972	134.52560	-240.64894	394.34210	11.31410	-127.31627	-233.83011	39.66677	268.36441	205.48741	32.91319	224.65894	219.75206	817.69763	-306.99902	140.35910	555.92999	-309.51935	289.43399	563.96295	-264.61612	-120.80251	557.80200	535.06860	13.84015	565.26495	577.73322	
5272	52.710	-120.97736	143.18224	-237.96280	394.30035	10.97110	-127.63537	-233.91661	40.34570	268.09735	205.51395	33.39304	224.48447	219.50679	817.25262	-307.38834	140.01765	555.57037	-309.82761	289.06213	563.72949	-265.02582	-120.23492	557.74243	534.96783	13.38707	565.74316	577.54639	
5273	52.720	-119.33855	149.79565	-237.24232	394.13968	11.00647	-127.84527	-233.91342	40.75817	267.88419	205.56082	33.79096	224.00323	219.52689	816.66241	-307.79449	139.73254	555.13379	-309.96509	288.55103	563.32471	-265.45605	-121.55898	558.80908	534.70459	12.93776	566.33313	577.19763	
5274	52.730	-117.03837	154.38589	-237.14502	394.19760	10.76877	-128.11952	-233.69736	40.94510	267.88266	205.56750	34.07265	223.71970	219.35272	816.27246	-308.30493	139.08223	554.83429	-310.28510	288.31607	563.08630	-265.59311	-121.96641	559.46710	534.41901	13.71123	566.78070	577.06219	
5275	52.740	-114.23457	156.06581	-236.70378	393.95425	10.91234	-128.18742	-233.53616	41.42375	267.59302	205.56758	34.05812	223.53717	218.88774	816.22974	-308.85565	138.65964	554.63666	-310.59537	287.97110	562.88281	-266.00769	-122.52121	559.88000	534.19495	12.99859	567.34595	576.73096	
5276	52.750	-110.71458	155.09460	-234.59431	394.20621	10.49587	-128.55672	-233.47342	41.56218	267.55527	205.50706	34.22740	223.32486	218.32611	816.21094	-309.32117	138.50676	554.60638	-310.83130	287.45438	562.80731	-266.31046	-123.04772	560.54547	533.82123	12.57285	567.93372	576.43884	
5277	52.760	-107.53833	152.68372	-231.98885	394.34821	10.40498	-128.71785	-233.50035	41.81757	267.41849	205.57906	34.60737	223.01753	218.05002	816.11517	-309.63965	137.97142	554.44647	-311.15778	287.18756	562.71436	-266.52734	-123.55727	561.11804	533.46704	11.99197	568.61584	576.05725	
